<svg xmlns="http://www.w3.org/2000/svg" viewBox="0 0 800 420">
<defs><pattern id="g" width="40" height="40" patternUnits="userSpaceOnUse"><path d="M40 0H0V40" fill="none" stroke="#F4F3EF" stroke-opacity=".06"/></pattern></defs>
<rect width="800" height="420" fill="#1A1819"/><rect width="800" height="420" fill="url(#g)"/>
<g fill="none" stroke="#F4F3EF" stroke-width="3" stroke-linecap="round" stroke-linejoin="round">
<rect x="230" y="56" width="340" height="308" rx="8" fill="#232021"/>
<path d="M400 84v34M400 118l16 26M400 150v26M290 176h220M290 176v30M400 176v30M510 176v30"/>
<circle cx="290" cy="232" r="24"/><path d="M273 215l34 34M307 215l-34 34"/>
<path d="M266 276h48M376 284h48M486 284h48" stroke-opacity=".5"/>
<path d="M450 322h120M450 322v42M450 343h120" stroke-opacity=".6"/>
<path d="M252 334h150M252 326v16M402 326v16" stroke-opacity=".6"/>
<path d="M84 340h104V214z"/><path d="M118 322h50v-60z"/>
<g transform="rotate(32 664 214)"><rect x="652" y="120" width="24" height="150" rx="3"/><path d="M652 270l12 28 12-28M652 144h24"/></g>
</g>
<g fill="none" stroke="#FFF212" stroke-width="3.5" stroke-linecap="round" stroke-linejoin="round">
<circle cx="400" cy="84" r="5" fill="#FFF212"/>
<rect x="370" y="208" width="60" height="52" rx="3"/><path d="M390 208v52M410 208v52M370 234h60"/>
<path d="M510 208c13 15 20 24 20 34a20 20 0 0 1-40 0c0-9 5-14 10-22 2 7 5 9 10 9-2-8-2-14 0-21z"/>
</g>
</svg>
