<?xml version="1.0" encoding="UTF-8"?>
<!DOCTYPE svg PUBLIC "-//W3C//DTD SVG 1.1//EN" "http://www.w3.org/Graphics/SVG/1.1/DTD/svg11.dtd">
<!-- Creator: CorelDRAW 2021 (64 Bit) -->
<svg xmlns="http://www.w3.org/2000/svg" xml:space="preserve" width="47.9716mm" height="52.3709mm" version="1.1" style="shape-rendering:geometricPrecision; text-rendering:geometricPrecision; image-rendering:optimizeQuality; fill-rule:evenodd; clip-rule:evenodd"
viewBox="0 0 1964.7 2144.88"
 xmlns:xlink="http://www.w3.org/1999/xlink"
 xmlns:xodm="http://www.corel.com/coreldraw/odm/2003">
 <defs>
  <style type="text/css">
   <![CDATA[
    .fil1 {fill:#373435}
    .fil0 {fill:#FFF212}
   ]]>
  </style>
 </defs>
 <g id="Camada_x0020_1">
  <metadata id="CorelCorpID_0Corel-Layer"/>
  <polygon class="fil0" points="819.37,1356.05 736.83,2064.58 1472.8,789.59 1146.81,788.9 1229.34,80.3 491.91,1356.05 "/>
  <g id="_2727679359536">
   <path class="fil1" d="M736.13 2064.53l0 0.01 5.5 -9.52 730.47 -1265.47 -325.99 -0.69 81.91 -703.27 0.61 -5.23 0.6 0.34 101.87 58.8 142.43 82.23 286.39 165.34c130.24,75.19 204.79,204.3 204.79,354.69l0 292.84 -0.02 371.17c-0.87,148.63 -74.69,276.22 -203.17,351.1l-578.08 333.72c-129.35,73.08 -276.85,72.39 -405.85,-2.09l-41.46 -23.93 0.01 -0.03z"/>
   <path class="fil1" d="M-0 1034.6l0.02 -294.95c0.7,-149.48 75.14,-277.74 204.77,-352.58l286.39 -165.34 286.41 -165.35c129.54,-74.79 277.73,-75.17 407.47,-1.18l43.54 25.13 -737.39 1275.67 327.46 0 -82.54 708.52 -0.01 0.03 -244.95 -141.42 -286.39 -165.34c-130.24,-75.19 -204.79,-204.3 -204.79,-354.69l0 -330.68 0 -37.84z"/>
   <polygon class="fil1" points="982.38,1315.06 562.09,1315.06 842.43,830.06 736.79,1214.19 "/>
   <polygon class="fil1" points="1227.95,930.62 981.65,829.82 1401.47,830.51 1121.66,1315.05 "/>
  </g>
 </g>
</svg>
